<?xml version="1.0" encoding="utf-8"?>
<!-- Generator: Adobe Illustrator 22.0.0, SVG Export Plug-In . SVG Version: 6.00 Build 0)  -->
<svg version="1.1" id="Layer_1" xmlns="http://www.w3.org/2000/svg" xmlns:xlink="http://www.w3.org/1999/xlink" x="0px" y="0px"
	 viewBox="0 0 464.9 460.8" style="enable-background:new 0 0 464.9 460.8;" xml:space="preserve">
<style type="text/css">
	.st0{fill:#FFFFFF;}
	.st1{fill:#044971;}
	.st2{fill-rule:evenodd;clip-rule:evenodd;fill:#044971;}
</style>
<circle class="st0" cx="236.5" cy="231.9" r="231.5"/>
<g>
	<g>
		<g>
			<g>
				<path class="st1" d="M319.8,316c-0.1-3.3-3.6-3.1-5.3,0.3c-3.1,6.1-22,8.5-22,8.5l-157.7,17.4c27.6,25.4,64.5,41,105,41
					c85.6,0,155-69.4,155-155v-4.4l-20.7,4.4c0,74.2-60.1,134.3-134.3,134.3c-19.1,0-37.4-4-53.8-11.2c-6.9-3,105.9-14.5,125.5-19
					C311.5,332.3,320.5,330.9,319.8,316z"/>
			</g>
		</g>
		<g>
			<path class="st1" d="M239.8,93.9c-34-0.9-65.1,12.7-88.8,33.5c-4.9,4.3-33.3,5.1-29,0c28.4-33.2,70.6-54.2,117.8-54.2
				c28.7,0,51.3,14.2,56.7,22.1c7.9,11.5-29,27.8-60,34c-16.4,3.3-75.7,16-95,20.3s-25.8,13-28.3,21.3c-2.3,7.8-5,26,10,28.3
				c15,2.3,24.1-14.8,23.5-20.8c-0.8-8.5-10.9-9.2-10.9-9.2s-1.3-3.7,4.3-2c5.7,1.7,15.7,7.7,13.7,21.3s-28,33.3-45.3,19
				c-17.3-14.3-11.7-39-5.7-48.3c6-9.3,17-27,75.3-31c58.3-4,112.8-20.4,105.9-26.5C277.8,96.3,253.8,94.3,239.8,93.9z"/>
		</g>
		<g>
			<g>
				<g>
					<g>
						<g>
							<g>
								<g>
									<path class="st1" d="M222.1,177.3c-3.2,26.8-1.7,46.1-1.7,46.1l-13.9,2.2c0.2-32.8,5.9-66.2,0.7-65.4
										c-3.2,0.5-6.6,10.3-8.8,28.6c-1.3,22.6-1.9,38.3-1.9,38.3l-13.9,2.2c0.2-34.5,6-69.7,0.7-68.9c-3.4,0.5-6.9,12.4-9.3,34.6
										c0,0-1.6,34.5-2.5,34.6c-1.9,0.2-16.8,2.4-14,2.3c1.6-0.1,2.2-38.9,2.3-41.4c0.2-13.3-0.7-45.4-0.2-52.4
										c0.2-3.3,15.6-10.9,12.9-6.5c0.6,4.6-0.7,39.2,0.2,44.8c1.7-17,7.4-30.3,15.2-31.5c6.5-1,9.9,6.2,11,18.1
										c2.8-9.8,7.2-16.5,12.8-17.4C220.5,144.3,224.5,157.5,222.1,177.3z"/>
									<path class="st1" d="M263.5,179.6l2.9,0.7c-3.4,15.6-10.2,39-23.8,41.1c-8.1,1.3-19.5-5.8-19.1-28.4
										c0.4-20.7,8.9-36,18.2-37.4c10.4-1.6,16.3,7.4,14.5,23c-1.7,13.9-9.5,24.2-18.1,24.4c1.6,4.5,4.3,6.8,7.7,6.3
										C253.8,208,259.1,195.7,263.5,179.6z M236.5,190.8c-0.1,1.9,0,3.7,0.1,5.3c2.8-2.1,5.8-8.1,6.9-17.8
										c0.7-5.6,0.5-10.4-1.5-10.1C239.2,168.6,236.7,178.9,236.5,190.8z"/>
									<path class="st1" d="M306.5,173l2.8,0.7c-3.8,17.5-10.6,37.6-18,38.8c-4,0.6-6.7-2.7-7.8-9.6c-2.4,7.2-6.3,11.8-11,12.5
										c-6.1,1-10.6-10.7-10.3-26c0.6-23.5,8.1-38.2,15.1-39.3c3.5-0.5,5.8,1.8,7.2,5.7c0.5-14.6,0.8-28.9,0.2-41l14.5-2.2
										c-2.1,19.7-1.3,26.8-3.1,52.7c-1.1,14.8-2.6,31.1,1.4,30.4C300.3,195.1,304,181.5,306.5,173z M279.7,163.5
										c-2.1,0.2-4.1,8.9-4.7,19.4c-0.6,10.6,0.6,19,2.7,18.8c2.1-0.2,4.1-8.9,4.7-19.4C282.9,171.7,281.7,163.3,279.7,163.5z"/>
									<path class="st1" d="M331.1,170.3c-3.8,17.5-10.6,37.6-18,38.8c-5.6,0.9-8.3-8.4-8-21.8c0.3-10.8,1.7-24.6,2.3-37.5l12.6-2
										c-0.9,16.6-5.1,45.1-1.4,44.5c2.8-0.4,7.1-14.2,9.6-22.7L331.1,170.3z"/>
									<path class="st1" d="M371.1,163l2.8,0.7c-3.8,17.5-10.5,37.6-17.9,38.8c-4.4,0.7-7.2-3.2-8.1-8.7
										c-2.3,6.3-5.8,10.8-10.7,11.6c-6.1,1-10.6-10.7-10.3-26c0.5-23.5,8.1-38.2,15.1-39.3c4.5-0.7,6.8,3.6,8.2,9.6
										c0.4-2.7,0.9-5,1.4-6.7l11.1-1.7c-1.3,13.8-5.5,45.1-1.3,44.5C364.4,185.2,368.6,171.5,371.1,163z M344.3,153.5
										c-2.1,0.2-4.1,8.9-4.7,19.4c-0.6,10.6,0.6,19,2.7,18.8c2.1-0.2,4.1-8.9,4.7-19.4C347.6,161.7,346.4,153.3,344.3,153.5z"/>
								</g>
								<g>
									<path class="st1" d="M206.7,148.1"/>
								</g>
								<g>
									<path class="st1" d="M155.2,196.9"/>
								</g>
								<g>
									<path class="st1" d="M105.3,298c-1.6,1.7,1.6,2.6,2,1.3c9-25.2-45.2-14.2-29.5,20.3c10.3,22.7,34.4,15.2,34.8,15.1
										c14.4-3.2,22.7-19.3,28.1-37.8c5.4-18.4,3-6.6,3-6.6l-5.7-0.2c0,0,0.6,0.2-1.7,6.7c-0.9,2.6-16.5,31.1-34.9,32.6
										c-12.6,1-27.5-14.5-17.7-32.5C92.3,281.5,110.5,292.5,105.3,298z"/>
								</g>
								<g>
									<g>
										<g>
											<g>
												<path class="st1" d="M161.8,283l3.5,1c-5.5,21.2-14.8,45.4-23.9,46.5c-6.7,0.8-11.5-7.3-10.4-23
													c0.8-14.3,2.1-28.7,3.4-43l0.8-8.9c1.2-15.4,2.4-30.6,3-44.8l16.5-1.9c-1.9,18.6-2.9,28.2-4.6,45l-0.9,8
													c-0.4,3.7-1,7.6-1.5,12.1c-2.1,18.2-3.6,36.8,1.3,36.3C152.5,309.9,158.5,293.3,161.8,283z"/>
												<path class="st1" d="M209.6,277.7l3.5,1c-5,18.8-14.4,47.1-31.2,49c-9.9,1.1-23.6-8.1-21.9-35.6
													c1.5-25.2,12.7-43.5,24.1-44.8c12.7-1.4,19.5,9.8,16.6,28.9c-2.8,16.9-12.9,29.1-23.4,28.8c1.8,5.6,4.9,8.5,9.1,8
													C196.3,311.9,203.4,297,209.6,277.7z M175.9,289.9c-0.2,2.3-0.2,4.6-0.1,6.5c3.6-2.4,7.6-9.6,9.3-21.5
													c1.1-6.8,1.1-12.7-1.3-12.5C180.4,263,176.9,275.4,175.9,289.9z"/>
												<path class="st1" d="M257.3,272.3l3.5,1c-5,18.8-14.4,47.1-31.2,49c-9.9,1.1-23.6-8.1-21.9-35.6
													c1.5-25.2,12.7-43.5,24.1-44.8c12.7-1.4,19.7,9.8,16.6,28.9c-1,5.9-17.3,7.8-16.4,4.4c1.8-6.7,1.9-18.2-0.5-17.9
													c-3.5,0.4-7.1,12.8-8,27.4c-0.9,14.5,3.4,23.8,10.5,23C244,306.5,251.1,291.7,257.3,272.3z"/>
												<path class="st1" d="M310,266.3l3.4,1c-5.5,21.2-14.7,45.4-23.8,46.5c-5.5,0.6-8.7-4.3-9.5-11
													c-3.1,7.6-7.6,12.9-13.6,13.6c-7.6,0.9-12.4-13.6-11.3-32.3c1.9-28.7,11.8-46.2,20.5-47.2c5.6-0.6,8.2,4.7,9.6,12.1
													c0.6-3.3,1.3-6.1,2.1-8.2l13.7-1.5c-2.3,16.8-9,54.8-3.8,54.3C300.7,293.2,306.6,276.6,310,266.3z M277.8,253.4
													c-2.5,0.1-5.5,10.7-6.7,23.4c-1.2,12.9-0.2,23.3,2.3,23.1c2.5-0.1,5.5-10.7,6.7-23.4
													C281.4,263.6,280.3,253.2,277.8,253.4z"/>
											</g>
										</g>
										<path class="st1" d="M294,221.5c0,0,5.7,0.1,10.5-7.9c1.9-3.1,4.3-0.8,6.7,1.5c2.4,2.2,3.9,15.8-12.3,18.6
											c-16.2,2.9-173.2,18.9-183,19.5c-9.8,0.6,3-10,3-10s12.1-3.4,31.6-5.2C170.1,236.2,281.5,224.3,294,221.5z"/>
									</g>
								</g>
							</g>
							<path class="st2" d="M323.2,135.3c0,4.6-3.7,8.3-8.3,8.3c-4.6,0-8.3-3.7-8.3-8.3c0-4.6,3.7-8.3,8.3-8.3
								C319.5,127,323.2,130.7,323.2,135.3z"/>
							<path class="st2" d="M109.6,293.9c0,4.6-3.7,8.3-8.3,8.3c-4.6,0-8.3-3.7-8.3-8.3c0-4.6,3.7-8.3,8.3-8.3
								C105.9,285.6,109.6,289.3,109.6,293.9z"/>
						</g>
					</g>
				</g>
				<path class="st1" d="M310,266.3c0,0,1.8-11,13.3-6.3c14.7,6,13.8,7.5,15.8-1.6c0.9-4.2,0.6-5.8,0.6-5.8l-1.5-9l10-22l18.6,10.3
					l-11.4,21.3l-8.8,2.3l-5,4.4c0,0-1.8,13.8-14.3,7.3c-10.5-5.5-13.5-1-13.8,0.2"/>
				<path class="st1" d="M356.4,210.2l-6.3,11.3l15.9,8.8l6.2-11L356.4,210.2z M357.8,220.3l-2.3-1.1l1.3-2.5l2.2,1.4L357.8,220.3z
					 M364.9,223.8l-2.3-1.1l1.3-2.5l2.2,1.4L364.9,223.8z"/>
			</g>
		</g>
	</g>
</g>
<g>
</g>
<g>
</g>
<g>
</g>
<g>
</g>
<g>
</g>
<g>
</g>
</svg>
